<?xml version="1.0" encoding="utf-8"?>
<!-- Generator: Adobe Illustrator 23.0.0, SVG Export Plug-In . SVG Version: 6.00 Build 0)  -->
<svg version="1.1" id="Layer_1" xmlns="http://www.w3.org/2000/svg" width="24" height="24" viewBox="0 0 24 24">
<style type="text/css">
	.st0{opacity:0;fill:none;}
	.st1{fill:none;stroke:#FFFFFF;stroke-width:1.3;stroke-miterlimit:10;}
</style>
<rect class="st0" width="24" height="24"/>
<rect class="st0" width="24" height="24"/>
<path class="st1" d="M19.1,4.6h1.8v4.8H3.1V4.6H5"/>
<path class="st1" d="M19.1,9.4h1.8v10.2c0,0.6-0.4,1-1,1H4.1c-0.6,0-1-0.4-1-1v-8.1"/>
<line class="st1" x1="6.8" y1="2.7" x2="6.8" y2="7.1"/>
<line class="st1" x1="10.3" y1="2.7" x2="10.3" y2="7.1"/>
<line class="st1" x1="13.8" y1="2.7" x2="13.8" y2="7.1"/>
<line class="st1" x1="17.3" y1="2.7" x2="17.3" y2="7.1"/>
<rect x="8.3" y="13.1" class="st1" width="0.3" height="0.3"/>
<rect x="11.8" y="13.1" class="st1" width="0.3" height="0.3"/>
<rect x="8.3" y="16.7" class="st1" width="0.3" height="0.3"/>
<rect x="11.8" y="16.7" class="st1" width="0.3" height="0.3"/>
<rect x="15.4" y="13.1" class="st1" width="0.3" height="0.3"/>
</svg>
