<?xml version="1.0" encoding="utf-8"?>
<!-- Generator: Adobe Illustrator 23.0.0, SVG Export Plug-In . SVG Version: 6.00 Build 0)  -->
<svg version="1.1" id="Layer_1" xmlns="http://www.w3.org/2000/svg" width="24" height="24" viewBox="0 0 24 24">
<style type="text/css">
	.st0{opacity:0;}
	.st1{fill:none;stroke:#FFFFFF;stroke-width:1.3;stroke-miterlimit:10;}
</style>
<rect class="st0" width="24" height="24"/>
<g transform="translate(2.149 0.75)">
	<path class="st1" d="M18.2,18H1.5c-0.7,0-1.2-0.5-1.3-1.2V5.1c0-0.7,0.6-1.3,1.3-1.3h16.7c0.7,0,1.3,0.6,1.3,1.3v11.6
		C19.5,17.4,19,18,18.2,18C18.3,18,18.2,18,18.2,18z"/>
	<path class="st1" d="M4.2,14.1l4.4-4.4l2.4,2.4l4.4-4.4"/>
	<path class="st1" d="M9.9-0.2v2.3"/>
	<path class="st1" d="M6.4,18L4,22.4"/>
	<path class="st1" d="M13.3,18l2.4,4.3"/>
</g>
</svg>
